HIERARCHY
ROOT Hips
{
	OFFSET	0.00	0.00	0.00
	CHANNELS 6 Xposition Yposition Zposition Zrotation Xrotation Yrotation
	JOINT LeftUpLeg
	{
		OFFSET	 0.126116	-0.014019	-0.065224
		CHANNELS 3 Zrotation Xrotation Yrotation
		JOINT LeftLeg
		{
			OFFSET	 0.000000	 0.000000	 0.569914
			CHANNELS 3 Zrotation Xrotation Yrotation
			JOINT LeftFoot
			{
				OFFSET	 0.000000	 0.000000	 0.544423
				CHANNELS 3 Zrotation Xrotation Yrotation
				JOINT LeftToeBase
				{
					OFFSET	 0.000000	 0.000000	 0.207117
					CHANNELS 3 Zrotation Xrotation Yrotation
					End Site
					{
						OFFSET	 0.000000	 0.000000	 0.207117
					}
				}
			}
		}
	}
	JOINT RightUpLeg
	{
		OFFSET	-0.124023	-0.008373	-0.065224
		CHANNELS 3 Zrotation Xrotation Yrotation
		JOINT RightLeg
		{
			OFFSET	 0.000000	 0.000000	 0.570047
			CHANNELS 3 Zrotation Xrotation Yrotation
			JOINT RightFoot
			{
				OFFSET	 0.000000	 0.000000	 0.544354
				CHANNELS 3 Zrotation Xrotation Yrotation
				JOINT RightToeBase
				{
					OFFSET	 0.000000	 0.000000	 0.207540
					CHANNELS 3 Zrotation Xrotation Yrotation
					End Site
					{
						OFFSET	 0.000000	 0.000000	 0.207540
					}
				}
			}
		}
	}
	JOINT Spine
	{
		OFFSET	 0.000184	-0.007763	 0.117403
		CHANNELS 3 Zrotation Xrotation Yrotation
		JOINT Spine1
		{
			OFFSET	 0.000000	 0.000000	 0.137269
			CHANNELS 3 Zrotation Xrotation Yrotation
			JOINT Spine2
			{
				OFFSET	 0.000000	 0.000000	 0.156879
				CHANNELS 3 Zrotation Xrotation Yrotation
				JOINT LeftShoulder
				{
					OFFSET	 0.080501	-0.002496	 0.160144
					CHANNELS 3 Zrotation Xrotation Yrotation
					JOINT LeftArm
					{
						OFFSET	 0.000000	 0.000000	 0.164363
						CHANNELS 3 Zrotation Xrotation Yrotation
						JOINT LeftForeArm
						{
							OFFSET	 0.000000	 0.000000	 0.364576
							CHANNELS 3 Zrotation Xrotation Yrotation
							JOINT LeftHand
							{
								OFFSET	 0.000000	 0.000000	 0.360812
								CHANNELS 3 Zrotation Xrotation Yrotation
								JOINT LeftHandIndex1
								{
									OFFSET	 0.000000	 0.000000	 0.086006
									CHANNELS 3 Zrotation Xrotation Yrotation
									JOINT LeftHandIndex2
									{
										OFFSET	 0.000000	 0.000000	 0.047236
										CHANNELS 3 Zrotation Xrotation Yrotation
										JOINT LeftHandIndex3
										{
											OFFSET	-0.004284	-0.000551	 0.038166
											CHANNELS 3 Zrotation Xrotation Yrotation
											End Site
											{
												OFFSET	-0.004284	-0.000551	 0.038166
											}
										}
									}
								}
							}
						}
					}
				}
				JOINT Neck
				{
					OFFSET	 0.000000	 0.000000	 0.176489
					CHANNELS 3 Zrotation Xrotation Yrotation
					JOINT Head
					{
						OFFSET	 0.000000	-0.001747	 0.077940
						CHANNELS 3 Zrotation Xrotation Yrotation
						End Site
						{
							OFFSET	 0.000000	-0.001747	 0.077940
						}
					}
				}
				JOINT RightShoulder
				{
					OFFSET	-0.080363	 0.000306	 0.159706
					CHANNELS 3 Zrotation Xrotation Yrotation
					JOINT RightArm
					{
						OFFSET	 0.000000	 0.000000	 0.164196
						CHANNELS 3 Zrotation Xrotation Yrotation
						JOINT RightForeArm
						{
							OFFSET	 0.000000	 0.000000	 0.365611
							CHANNELS 3 Zrotation Xrotation Yrotation
							JOINT RightHand
							{
								OFFSET	 0.000000	 0.000000	 0.360648
								CHANNELS 3 Zrotation Xrotation Yrotation
								JOINT RightHandIndex1
								{
									OFFSET	 0.000000	 0.000000	 0.069977
									CHANNELS 3 Zrotation Xrotation Yrotation
									JOINT RightHandIndex2
									{
										OFFSET	 0.000000	 0.000000	 0.052305
										CHANNELS 3 Zrotation Xrotation Yrotation
										JOINT RightHandIndex3
										{
											OFFSET	 0.009002	-0.000782	 0.042196
											CHANNELS 3 Zrotation Xrotation Yrotation
											End Site
											{
												OFFSET	 0.009002	-0.000782	 0.042196
											}
										}
									}
								}
							}
						}
					}
				}
			}
		}
	}
}
MOTION
Frames:    6
Frame Time: 0.03333334
-0.042523	 0.267529	 0.987522	 0.431119	 34.945470	-6.052197	-45.082090	-86.862250	 135.203300	 9.814501	-77.462430	 9.992046	-61.753690	 83.516780	 66.615970	-2.385832	 28.452790	-0.000001	 97.128010	-77.105580	-91.839620	-22.404640	-78.980070	-16.958550	 75.401180	 79.976100	-68.395030	 2.384659	 28.388700	-0.000001	-3.317413	 15.560420	 2.081777	-3.398513	 22.893640	 5.205352	 2.467054	-1.250913	 0.969022	-99.157090	 68.201060	 156.808900	 13.362730	-4.351200	-34.490360	-2.946453	 13.527870	-44.350850	-32.567700	-40.406750	-22.461810	-2.027600	 6.559038	 9.033609	-5.188889	 0.308190	 3.541030	-5.234859	 0.342567	 0.430617	 0.360355	 17.621030	-6.023297	 4.716745	-26.787100	 1.461672	 97.440170	 64.650340	-159.096500	-2.596344	 3.885745	 47.927860	-6.784515	 0.486511	 29.296640	 14.609000	-39.811950	 16.914660	 1.803333	 3.979147	-15.098590	 4.898592	 3.004813	-9.310344	 5.224449	 0.395017	 2.014677
-0.042743	 0.267793	 0.999035	-0.059657	 33.702360	-5.141711	-36.395770	-84.389190	 144.036200	 8.300183	-76.142180	 8.466739	-60.783380	 83.113790	 65.454620	-2.385832	 28.452790	-0.000001	 86.407040	-77.663750	-102.858800	-20.722560	-77.289790	-15.212490	 70.790860	 80.093030	-63.599960	 2.384659	 28.388700	-0.000001	-3.588835	 15.918810	 2.106582	-3.212901	 24.137290	 5.135021	 3.184609	-3.041567	 0.403181	-98.557530	 68.700440	 157.915600	 12.597560	-1.406768	-36.520940	-2.572722	 13.195890	-44.488690	-34.072620	-40.901020	-23.763020	-2.027600	 6.559038	 9.033609	-5.188889	 0.308190	 3.541030	-5.234859	 0.342567	 0.430617	-0.443244	 11.683100	-4.219642	 4.853665	-21.057460	 0.445361	 97.101020	 64.185520	-160.363600	-3.396001	 3.350147	 49.007510	-6.080897	 0.901969	 29.859110	 15.487770	-39.768810	 19.157660	 1.803333	 3.979147	-15.098590	 4.898592	 3.004813	-9.310344	 5.224449	 0.395017	 2.014677
-0.042317	 0.268627	 1.014960	-0.420124	 32.108090	-4.316370	-30.273090	-81.205630	 150.496200	 6.943771	-74.020580	 7.078861	-57.756360	 82.556370	 62.069210	-2.385833	 28.452760	 0.000004	 71.737570	-77.455710	-117.661100	-19.082690	-74.920220	-13.474300	 64.796440	 80.053940	-57.356220	 2.384659	 28.388700	-0.000001	-3.905199	 16.446550	 2.148787	-3.015514	 25.110800	 4.968114	 3.564365	-5.035170	-0.068890	-97.409470	 70.281740	 159.150900	 12.466060	 2.852363	-38.857590	-2.114507	 12.737520	-44.549390	-36.147360	-41.414450	-26.097380	-2.027600	 6.559038	 9.033609	-5.188889	 0.308190	 3.541030	-5.234859	 0.342567	 0.430617	-0.980033	 4.020418	-2.582017	 4.748939	-13.767990	-0.923872	 96.633450	 64.347070	-161.398200	-4.341037	 3.943018	 49.766850	-6.132415	 0.894534	 30.486100	 15.648680	-39.370370	 20.677420	 1.803333	 3.979147	-15.098590	 4.898592	 3.004813	-9.310344	 5.224449	 0.395017	 2.014677
-0.040570	 0.271155	 1.035203	-0.639883	 30.027920	-3.430259	-25.677510	-77.261250	 155.534100	 6.295076	-71.129300	 6.353909	-53.024930	 81.949130	 56.739700	-2.385833	 28.452750	 0.000004	 55.013870	-75.944590	-134.361500	-17.795130	-71.787280	-12.034120	 58.333290	 79.773220	-50.411760	 2.384659	 28.388700	-0.000001	-4.210242	 17.210490	 2.078446	-2.763757	 25.864710	 4.534997	 3.722023	-7.184916	-0.291725	-95.116330	 73.962340	 160.251200	 13.647970	 9.188902	-42.670040	-1.636917	 12.081260	-44.197850	-38.592500	-42.080470	-28.654800	-2.027600	 6.559038	 9.033609	-5.188889	 0.308190	 3.541030	-5.234859	 0.342567	 0.430617	-1.344642	-4.704949	-2.157725	 4.792770	-5.390245	-1.559794	 95.440760	 66.578990	-162.609700	-5.742523	 7.366020	 51.260730	-6.692249	 0.583188	 31.293370	 16.210760	-40.051260	 22.058530	 1.803333	 3.979147	-15.098590	 4.898592	 3.004813	-9.310344	 5.224449	 0.395017	 2.014677
-0.037505	 0.273034	 1.057879	-0.487296	 27.822230	-2.668189	-22.891960	-72.918700	 159.027600	 5.978172	-67.697580	 5.976931	-46.354650	 81.221730	 49.378240	-2.385833	 28.452750	 0.000004	 41.638090	-72.984140	-147.548900	-14.471580	-68.364920	-8.678711	 52.599510	 79.290700	-44.930980	 2.384659	 28.388700	-0.000001	-4.472793	 17.813400	 1.763569	-2.612653	 26.392820	 3.901208	 3.656755	-9.567416	-0.299768	-92.984770	 76.970640	 161.288100	 16.625760	 14.293400	-46.031210	-1.079731	 11.428870	-44.014510	-39.985350	-42.512880	-30.976290	-2.027600	 6.559038	 9.033609	-5.188889	 0.308190	 3.541030	-5.234859	 0.342567	 0.430617	-1.662706	-13.051820	-2.447410	 4.721635	 2.380444	-1.823246	 94.267690	 68.859180	-163.774800	-8.003761	 11.012800	 52.116550	-7.153295	 0.318493	 32.588590	 16.435100	-40.797620	 22.751350	 1.803333	 3.979147	-15.098590	 4.898592	 3.004813	-9.310344	 5.224449	 0.395017	 2.014677
-0.031368	 0.270500	 1.089796	 0.503443	 25.721160	-2.055877	-19.964130	-67.726040	 163.134500	 5.467931	-62.554120	 5.226058	-35.479400	 80.154320	 37.927750	-2.385833	 28.452750	 0.000004	 31.269810	-68.173270	-157.221300	-10.902860	-63.287340	-5.145683	 46.295290	 78.033390	-38.827830	 2.384659	 28.388700	-0.000001	-4.417834	 16.990500	 0.630930	-2.602520	 26.554680	 2.891454	 3.380299	-12.482330	-0.393917	-94.061480	 74.847190	 163.719700	 20.290300	 16.085800	-44.434600	 0.126421	 11.125570	-46.479850	-39.173800	-42.200260	-32.793500	-2.027600	 6.559038	 9.033609	-5.188889	 0.308190	 3.541030	-5.234859	 0.342567	 0.430617	-1.702662	-14.824520	-0.995982	 4.403157	 3.805247	-2.649764	 93.801170	 69.070130	-165.197300	-10.967950	 13.939370	 49.862560	-7.673965	-0.016513	 36.374380	 15.741660	-40.791990	 22.945940	 1.803333	 3.979147	-15.098590	 4.898592	 3.004813	-9.310344	 5.224449	 0.395017	 2.014677
